<mxfile>
    <diagram id="2IMQaHNk9k9PHe_M4Y4g" name="Page-1">
        <mxGraphModel dx="1762" dy="2142" grid="0" gridSize="10" guides="1" tooltips="1" connect="1" arrows="1" fold="1" page="0" pageScale="1" pageWidth="850" pageHeight="1100" math="0" shadow="0">
            <root>
                <mxCell id="0"/>
                <mxCell id="1" parent="0"/>
                <UserObject label="" lucidchartObjectId="gJ5swgswBCqC" id="ftV5zFxBLPoc9lyPTvhS-1">
                    <mxCell style="html=1;overflow=block;blockSpacing=1;whiteSpace=wrap;;whiteSpace=wrap;fontSize=24;spacing=3.8;strokeOpacity=100;rounded=1;absoluteArcSize=1;arcSize=9;strokeWidth=2.3;fillColor=#FFFFFF;fontColor=#0D0D0D;" parent="1" vertex="1">
                        <mxGeometry y="-1088.82" width="960" height="945" as="geometry"/>
                    </mxCell>
                </UserObject>
                <UserObject label="Topic" lucidchartObjectId="dB5se1LFiQ.x" id="ftV5zFxBLPoc9lyPTvhS-2">
                    <mxCell style="html=1;overflow=block;blockSpacing=1;whiteSpace=wrap;;whiteSpace=wrap;fontSize=24;spacing=3.8;strokeOpacity=100;rounded=1;absoluteArcSize=1;arcSize=9;strokeWidth=2.3;fillColor=#FFFFFF;fontColor=#0D0D0D;labelBorderColor=none;" parent="1" vertex="1">
                        <mxGeometry x="135" y="-983.8199999999999" width="255" height="150" as="geometry"/>
                    </mxCell>
                </UserObject>
                <UserObject label="Resource" lucidchartObjectId="-B5st2I3vmg4" id="ftV5zFxBLPoc9lyPTvhS-3">
                    <mxCell style="html=1;overflow=block;blockSpacing=1;whiteSpace=wrap;;whiteSpace=wrap;fontSize=24;spacing=3.8;strokeOpacity=100;rounded=1;absoluteArcSize=1;arcSize=9;strokeWidth=2.3;fillColor=#FFFFFF;fontColor=#0D0D0D;" parent="1" vertex="1">
                        <mxGeometry x="600" y="-983.8199999999999" width="255" height="150" as="geometry"/>
                    </mxCell>
                </UserObject>
                <UserObject label="TopicResource" lucidchartObjectId=".D5smA5bSyEe" id="ftV5zFxBLPoc9lyPTvhS-4">
                    <mxCell style="html=1;overflow=block;blockSpacing=1;whiteSpace=wrap;;whiteSpace=wrap;fontSize=24;spacing=3.8;strokeOpacity=100;rounded=1;absoluteArcSize=1;arcSize=9;strokeWidth=2.3;fillColor=#FFFFFF;fontColor=#0D0D0D;" parent="1" vertex="1">
                        <mxGeometry x="135" y="-713.8199999999999" width="255" height="150" as="geometry"/>
                    </mxCell>
                </UserObject>
                <UserObject label="Rating" lucidchartObjectId="kE5s4KgVHopP" id="ftV5zFxBLPoc9lyPTvhS-5">
                    <mxCell style="html=1;overflow=block;blockSpacing=1;whiteSpace=wrap;;whiteSpace=wrap;fontSize=24;spacing=3.8;strokeOpacity=100;rounded=1;absoluteArcSize=1;arcSize=9;strokeWidth=2.3;fillColor=#FFFFFF;fontColor=#0D0D0D;" parent="1" vertex="1">
                        <mxGeometry x="135" y="-428.82" width="255" height="150" as="geometry"/>
                    </mxCell>
                </UserObject>
                <UserObject label="" lucidchartObjectId="OE5snXSTkfjG" id="ftV5zFxBLPoc9lyPTvhS-6">
                    <mxCell style="html=1;jettySize=18;whiteSpace=wrap;fontSize=24;strokeColor=#5E5E5E;strokeWidth=1.5;rounded=0;startArrow=none;;endArrow=block;endFill=1;;exitX=0.5;exitY=-0.008;exitPerimeter=0;entryX=0.5;entryY=1.008;entryPerimeter=0;" parent="1" source="ftV5zFxBLPoc9lyPTvhS-4" target="ftV5zFxBLPoc9lyPTvhS-2" edge="1">
                        <mxGeometry width="100" height="100" relative="1" as="geometry">
                            <Array as="points"/>
                        </mxGeometry>
                    </mxCell>
                </UserObject>
                <mxCell id="ftV5zFxBLPoc9lyPTvhS-7" value="*" style="text;html=1;resizable=0;labelBackgroundColor=#ffffff;align=center;verticalAlign=middle;fontStyle=1;fontColor=#333333;;fontSize=24;" parent="ftV5zFxBLPoc9lyPTvhS-6" vertex="1">
                    <mxGeometry x="-0.5044906139657055" relative="1" as="geometry">
                        <mxPoint x="7" as="offset"/>
                    </mxGeometry>
                </mxCell>
                <mxCell id="ftV5zFxBLPoc9lyPTvhS-8" value="1" style="text;html=1;resizable=0;labelBackgroundColor=#ffffff;align=center;verticalAlign=middle;fontStyle=1;fontColor=#333333;;fontSize=24;" parent="ftV5zFxBLPoc9lyPTvhS-6" vertex="1">
                    <mxGeometry x="0.6386735474573211" relative="1" as="geometry">
                        <mxPoint x="-8" as="offset"/>
                    </mxGeometry>
                </mxCell>
                <UserObject label="" lucidchartObjectId="dF5st1Egmp0H" id="ftV5zFxBLPoc9lyPTvhS-9">
                    <mxCell style="html=1;jettySize=18;whiteSpace=wrap;fontSize=24;strokeColor=#5E5E5E;strokeWidth=1.5;rounded=0;startArrow=none;;endArrow=block;endFill=1;;exitX=0.5;exitY=-0.008;exitPerimeter=0;entryX=-0.004;entryY=0.5;entryPerimeter=0;" parent="1" source="ftV5zFxBLPoc9lyPTvhS-4" target="ftV5zFxBLPoc9lyPTvhS-3" edge="1">
                        <mxGeometry width="100" height="100" relative="1" as="geometry">
                            <Array as="points"/>
                        </mxGeometry>
                    </mxCell>
                </UserObject>
                <mxCell id="ftV5zFxBLPoc9lyPTvhS-10" value="*" style="text;html=1;resizable=0;labelBackgroundColor=#ffffff;align=center;verticalAlign=middle;fontStyle=1;fontColor=#333333;;fontSize=24;" parent="ftV5zFxBLPoc9lyPTvhS-9" vertex="1">
                    <mxGeometry x="-0.7820636122715894" relative="1" as="geometry">
                        <mxPoint x="112" y="-168" as="offset"/>
                    </mxGeometry>
                </mxCell>
                <mxCell id="ftV5zFxBLPoc9lyPTvhS-11" value="1" style="text;html=1;resizable=0;labelBackgroundColor=#ffffff;align=center;verticalAlign=middle;fontStyle=1;fontColor=#333333;;fontSize=24;" parent="ftV5zFxBLPoc9lyPTvhS-9" vertex="1">
                    <mxGeometry x="0.8547053793267954" relative="1" as="geometry">
                        <mxPoint x="-7.460000000000001" y="-30.3" as="offset"/>
                    </mxGeometry>
                </mxCell>
                <mxCell id="ftV5zFxBLPoc9lyPTvhS-27" style="edgeStyle=orthogonalEdgeStyle;rounded=0;orthogonalLoop=1;jettySize=auto;html=1;exitX=0;exitY=0;exitDx=0;exitDy=0;fontSize=24;" parent="ftV5zFxBLPoc9lyPTvhS-9" source="ftV5zFxBLPoc9lyPTvhS-10" target="ftV5zFxBLPoc9lyPTvhS-1" edge="1">
                    <mxGeometry relative="1" as="geometry"/>
                </mxCell>
                <mxCell id="ftV5zFxBLPoc9lyPTvhS-28" style="edgeStyle=orthogonalEdgeStyle;rounded=0;orthogonalLoop=1;jettySize=auto;html=1;exitX=0;exitY=0;exitDx=0;exitDy=0;fontSize=24;" parent="ftV5zFxBLPoc9lyPTvhS-9" source="ftV5zFxBLPoc9lyPTvhS-11" target="ftV5zFxBLPoc9lyPTvhS-1" edge="1">
                    <mxGeometry relative="1" as="geometry"/>
                </mxCell>
                <UserObject label="" lucidchartObjectId="oF5syd3fOCRy" id="ftV5zFxBLPoc9lyPTvhS-12">
                    <mxCell style="html=1;jettySize=18;whiteSpace=wrap;fontSize=24;strokeColor=#5E5E5E;strokeWidth=1.5;rounded=0;startArrow=none;;endArrow=block;endFill=1;;exitX=0.5;exitY=-0.008;exitPerimeter=0;entryX=0.5;entryY=1.008;entryPerimeter=0;" parent="1" source="ftV5zFxBLPoc9lyPTvhS-5" target="ftV5zFxBLPoc9lyPTvhS-4" edge="1">
                        <mxGeometry width="100" height="100" relative="1" as="geometry">
                            <Array as="points"/>
                        </mxGeometry>
                    </mxCell>
                </UserObject>
                <mxCell id="ftV5zFxBLPoc9lyPTvhS-13" value="1" style="text;html=1;resizable=0;labelBackgroundColor=#ffffff;align=center;verticalAlign=middle;fontStyle=1;fontColor=#333333;;fontSize=24;" parent="ftV5zFxBLPoc9lyPTvhS-12" vertex="1">
                    <mxGeometry x="0.6128099376794747" relative="1" as="geometry">
                        <mxPoint x="8" as="offset"/>
                    </mxGeometry>
                </mxCell>
                <mxCell id="ftV5zFxBLPoc9lyPTvhS-14" value="*" style="text;html=1;resizable=0;labelBackgroundColor=#ffffff;align=center;verticalAlign=middle;fontStyle=1;fontColor=#333333;;fontSize=24;" parent="ftV5zFxBLPoc9lyPTvhS-12" vertex="1">
                    <mxGeometry x="-0.7357404674372141" relative="1" as="geometry">
                        <mxPoint x="-7" as="offset"/>
                    </mxGeometry>
                </mxCell>
                <UserObject label="User" lucidchartObjectId="TF5sRJQhWq.U" id="ftV5zFxBLPoc9lyPTvhS-15">
                    <mxCell style="html=1;overflow=block;blockSpacing=1;whiteSpace=wrap;;whiteSpace=wrap;fontSize=24;spacing=3.8;strokeOpacity=100;rounded=1;absoluteArcSize=1;arcSize=9;strokeWidth=2.3;fillColor=#FFFFFF;fontColor=#0D0D0D;" parent="1" vertex="1">
                        <mxGeometry x="600" y="-428.82" width="255" height="150" as="geometry"/>
                    </mxCell>
                </UserObject>
                <UserObject label="" lucidchartObjectId="1F5sUuke9GoR" id="ftV5zFxBLPoc9lyPTvhS-16">
                    <mxCell style="html=1;jettySize=18;whiteSpace=wrap;fontSize=24;strokeColor=#5E5E5E;strokeWidth=1.5;rounded=0;startArrow=none;;endArrow=block;endFill=1;;exitX=1.004;exitY=0.5;exitPerimeter=0;entryX=-0.004;entryY=0.5;entryPerimeter=0;" parent="1" source="ftV5zFxBLPoc9lyPTvhS-5" target="ftV5zFxBLPoc9lyPTvhS-15" edge="1">
                        <mxGeometry width="100" height="100" relative="1" as="geometry">
                            <Array as="points"/>
                        </mxGeometry>
                    </mxCell>
                </UserObject>
                <mxCell id="ftV5zFxBLPoc9lyPTvhS-17" value="*" style="text;html=1;resizable=0;labelBackgroundColor=#ffffff;align=center;verticalAlign=middle;fontStyle=1;fontColor=#333333;;fontSize=24;" parent="ftV5zFxBLPoc9lyPTvhS-16" vertex="1">
                    <mxGeometry x="-0.8497591533508358" relative="1" as="geometry">
                        <mxPoint y="-19.5" as="offset"/>
                    </mxGeometry>
                </mxCell>
                <mxCell id="ftV5zFxBLPoc9lyPTvhS-18" value="1" style="text;html=1;resizable=0;labelBackgroundColor=#ffffff;align=center;verticalAlign=middle;fontStyle=1;fontColor=#333333;;fontSize=24;" parent="ftV5zFxBLPoc9lyPTvhS-16" vertex="1">
                    <mxGeometry x="0.7848230638452012" relative="1" as="geometry">
                        <mxPoint y="15.5" as="offset"/>
                    </mxGeometry>
                </mxCell>
                <UserObject label="" lucidchartObjectId="2G5s5patRFiB" id="ftV5zFxBLPoc9lyPTvhS-19">
                    <mxCell style="html=1;jettySize=18;whiteSpace=wrap;fontSize=24;strokeColor=#5E5E5E;strokeWidth=1.5;rounded=0;startArrow=none;;endArrow=block;endFill=1;;exitX=1.004;exitY=0.5;exitPerimeter=0;entryX=0.5;entryY=-0.007;entryPerimeter=0;" parent="1" source="ftV5zFxBLPoc9lyPTvhS-2" target="ftV5zFxBLPoc9lyPTvhS-15" edge="1">
                        <mxGeometry width="100" height="100" relative="1" as="geometry">
                            <Array as="points"/>
                        </mxGeometry>
                    </mxCell>
                </UserObject>
                <mxCell id="ftV5zFxBLPoc9lyPTvhS-20" value="*" style="text;html=1;resizable=0;labelBackgroundColor=#ffffff;align=center;verticalAlign=middle;fontStyle=1;fontColor=#333333;;fontSize=24;" parent="ftV5zFxBLPoc9lyPTvhS-19" vertex="1">
                    <mxGeometry x="-0.9414201117164144" relative="1" as="geometry">
                        <mxPoint x="-102" y="171" as="offset"/>
                    </mxGeometry>
                </mxCell>
                <mxCell id="ftV5zFxBLPoc9lyPTvhS-21" value="1" style="text;html=1;resizable=0;labelBackgroundColor=#ffffff;align=center;verticalAlign=middle;fontStyle=1;fontColor=#333333;;fontSize=24;" parent="ftV5zFxBLPoc9lyPTvhS-19" vertex="1">
                    <mxGeometry x="0.8712445679700576" relative="1" as="geometry">
                        <mxPoint x="-19" y="5" as="offset"/>
                    </mxGeometry>
                </mxCell>
                <UserObject label="" lucidchartObjectId="jH5sRh~zYDxt" id="ftV5zFxBLPoc9lyPTvhS-22">
                    <mxCell style="html=1;jettySize=18;whiteSpace=wrap;fontSize=24;strokeColor=#5E5E5E;strokeWidth=1.5;rounded=0;startArrow=none;;endArrow=block;endFill=1;;exitX=0.5;exitY=1.008;exitPerimeter=0;entryX=0.5;entryY=-0.007;entryPerimeter=0;" parent="1" source="ftV5zFxBLPoc9lyPTvhS-3" target="ftV5zFxBLPoc9lyPTvhS-15" edge="1">
                        <mxGeometry width="100" height="100" relative="1" as="geometry">
                            <Array as="points"/>
                        </mxGeometry>
                    </mxCell>
                </UserObject>
                <mxCell id="ftV5zFxBLPoc9lyPTvhS-23" value="*" style="text;html=1;resizable=0;labelBackgroundColor=#ffffff;align=center;verticalAlign=middle;fontStyle=1;fontColor=#333333;;fontSize=24;" parent="ftV5zFxBLPoc9lyPTvhS-22" vertex="1">
                    <mxGeometry x="-0.9234633307913175" relative="1" as="geometry">
                        <mxPoint x="-7" as="offset"/>
                    </mxGeometry>
                </mxCell>
                <mxCell id="ftV5zFxBLPoc9lyPTvhS-24" value="1" style="text;html=1;resizable=0;labelBackgroundColor=#ffffff;align=center;verticalAlign=middle;fontStyle=1;fontColor=#333333;;fontSize=24;" parent="ftV5zFxBLPoc9lyPTvhS-22" vertex="1">
                    <mxGeometry x="0.880893884137097" relative="1" as="geometry">
                        <mxPoint x="8" as="offset"/>
                    </mxGeometry>
                </mxCell>
                <UserObject label="Domain" lucidchartObjectId="BJ5sh0DXwHf3" id="ftV5zFxBLPoc9lyPTvhS-25">
                    <mxCell style="html=1;overflow=block;blockSpacing=1;whiteSpace=wrap;;whiteSpace=wrap;fontSize=24;fontColor=#333333;spacing=3.8;strokeOpacity=0;fillOpacity=0;rounded=1;absoluteArcSize=1;arcSize=9;fillColor=#ffffff;strokeWidth=2.3;" parent="1" vertex="1">
                        <mxGeometry x="45" y="-1058.82" width="90" height="30" as="geometry"/>
                    </mxCell>
                </UserObject>
            </root>
        </mxGraphModel>
    </diagram>
</mxfile>